# xmcd
#
# Track frame offsets:
#	150
#	14792
#	32578
#	45596
#	60057
#	76708
#	93084
#	107665
#	127915
#	144816
#	160011
#	174692
#	195432
#	208858
#	222061
#	238542
#	253178
#	267285
#	284920
#	300810
#	321411
#
# Disc length: 4504 seconds
#
# Revision: 0
# Processed by: cddbd v1.5.2PL0 Copyright (c) Steve Scherf et al.
# Submitted via: dBpowerAMP V4.0
#
DISCID=16119615
DTITLE=cristea - hoyues
DYEAR=1900
DGENRE=
TTITLE0=Delyno-Private love
TTITLE1=Adrian Sana-Hold on
TTITLE2=drums
TTITLE3=Deepsyde Deejay-live it up
TTITLE4=Dj Andi&Stela-happines
TTITLE5=Dj Bigice and Outffit-Vejo bonito
TTITLE6=jump up
TTITLE7=regrete
TTITLE8=trumpet
TTITLE9=Colors
TTITLE10=give into my love
TTITLE11=alejandro
TTITLE12=Satelite
TTITLE13=Pa-Pi-To
TTITLE14=I feel so zu
TTITLE15=Bee Free
TTITLE16=Be side u
TTITLE17=Love is for free
TTITLE18=Alors on dance
TTITLE19=americano
TTITLE20=lick shot
EXTD=houseasdasdasdas
EXTT0=
EXTT1=
EXTT2=
EXTT3=
EXTT4=
EXTT5=
EXTT6=
EXTT7=
EXTT8=
EXTT9=
EXTT10=
EXTT11=
EXTT12=
EXTT13=
EXTT14=
EXTT15=
EXTT16=
EXTT17=
EXTT18=
EXTT19=
EXTT20=
PLAYORDER=
